<?xml version="1.0" standalone="no"?><!DOCTYPE svg PUBLIC "-//W3C//DTD SVG 1.1//EN" "http://www.w3.org/Graphics/SVG/1.1/DTD/svg11.dtd"><svg t="1518158720911" class="icon" style="" viewBox="0 0 1024 1024" version="1.1" xmlns="http://www.w3.org/2000/svg" p-id="3389" xmlns:xlink="http://www.w3.org/1999/xlink" width="128" height="128"><defs><style type="text/css"></style></defs><path d="M808.66304 383.5328H608.74496V166.76864c0-22.07872-18.06464-40.14336-40.14336-40.14336H215.33696c-22.07872 0-40.14336 18.06464-40.14336 40.14336v690.46272c0 22.07872 18.06464 40.14336 40.14336 40.14336H808.66304c22.07872 0 40.14336-18.06464 40.14336-40.14336V423.67616c0-22.07872-18.06464-40.14336-40.14336-40.14336zM544.51328 813.07392c0 11.04-9.03168 20.07168-20.07168 20.07168H259.49696c-11.04 0-20.07168-9.03168-20.07168-20.07168V210.92608c0-11.04 9.03168-20.07168 20.07168-20.07168H524.4416c11.04 0 20.07168 9.03168 20.07168 20.07168v602.14784z m240.06144 0c0 11.04-9.03168 20.07168-20.07168 20.07168H630.04416c-11.04 0-20.07168-9.03168-20.07168-20.07168V467.8336c0-11.04 9.03168-20.07168 20.07168-20.07168h134.45888c11.04 0 20.07168 9.03168 20.07168 20.07168v345.24032z" fill="#39548b" p-id="3390"></path><path d="M404.47744 884.31488H380.3904c-11.04 0-20.07168-9.03168-20.07168-20.07168V660.52992c0-11.04 9.03168-20.07168 20.07168-20.07168h24.08576c11.04 0 20.07168 9.03168 20.07168 20.07168v203.71456c0 11.03872-9.03168 20.0704-20.0704 20.0704zM402.46912 447.76192h-24.08576c-11.04 0-20.07168-9.03168-20.07168-20.07168v-24.08576c0-11.04 9.03168-20.07168 20.07168-20.07168h24.08576c11.04 0 20.07168 9.03168 20.07168 20.07168v24.08576c0 11.04-9.03168 20.07168-20.07168 20.07168z" fill="#39548b" p-id="3391"></path></svg>