<?xml version="1.0" standalone="no"?><!DOCTYPE svg PUBLIC "-//W3C//DTD SVG 1.1//EN" "http://www.w3.org/Graphics/SVG/1.1/DTD/svg11.dtd"><svg t="1518158732669" class="icon" style="" viewBox="0 0 1024 1024" version="1.1" xmlns="http://www.w3.org/2000/svg" p-id="3605" xmlns:xlink="http://www.w3.org/1999/xlink" width="128" height="128"><defs><style type="text/css"></style></defs><path d="M676.33024 412.73472c-12.54656-12.4992-32.8448-12.48-45.36832 0.04352L489.71648 551.67872l-60.3712-62.58944c-12.54144-12.54144-32.87552-12.54144-45.41696 0-12.54144 12.54144-12.54144 32.87552 0 45.41696l91.26016 93.47968a19.9936 19.9936 0 0 0 14.52672 5.8624c5.248 0.08704 10.52288-1.85856 14.52672-5.8624l172.13184-169.79968c12.55552-12.55552 12.53632-32.91904-0.04352-45.45152z" fill="#39548b" p-id="3606"></path><path d="M819.79904 239.34848c-39.15008 0-176.17408-8.38912-296.41984-103.46624l-11.18464-8.38912-0.19456 0.14592-0.19328-0.14592-11.18464 8.38912c-120.24576 95.07712-257.27104 103.46624-296.41984 103.46624-16.98816 0-30.76096 13.77152-30.76096 30.75968v288.03072c0 44.7424 15.25888 90.33472 25.16736 106.26432 121.056 194.61888 296.44544 232.1024 313.1968 232.1024l0.19328-0.00256 0.19328 0.00256c16.75136 0 192.1408-37.48352 313.1968-232.1024 9.90848-15.92832 25.16736-61.52192 25.16736-106.26432V270.10944c0.00256-16.98816-13.76896-30.76096-30.75712-30.76096z m-32.25216 319.04384c0 36.416-12.41984 73.52192-20.48256 86.48704-98.52544 158.39616-241.27232 188.90368-254.9056 188.90368l-0.15744-0.00256a6.4576 6.4576 0 0 1-0.15744 0.00256c-13.63328 0-156.38016-30.50624-254.9056-188.90368-8.064-12.96384-20.48256-50.07104-20.48256-86.48704V323.96928c0-13.82656 11.20896-25.03552 25.03552-25.03552 31.86304 0 143.38432-6.8288 241.25056-84.20992l9.10336-6.8288 0.15744 0.11904 0.15744-0.11904 9.10336 6.8288c97.86624 77.3824 209.38752 84.20992 241.25056 84.20992 13.82656 0 25.03552 11.20896 25.03552 25.03552v234.42304h-0.00256z" fill="#39548b" p-id="3607"></path></svg>