<?xml version="1.0" standalone="no"?><!DOCTYPE svg PUBLIC "-//W3C//DTD SVG 1.1//EN" "http://www.w3.org/Graphics/SVG/1.1/DTD/svg11.dtd"><svg t="1518150199198" class="icon" style="" viewBox="0 0 1024 1024" version="1.1" xmlns="http://www.w3.org/2000/svg" p-id="2450" xmlns:xlink="http://www.w3.org/1999/xlink" width="128" height="128"><defs><style type="text/css"></style></defs><path d="M512 288.46976c-70.94528 0-128.45824 57.51296-128.45824 128.45824S441.05472 545.38624 512 545.38624s128.45824-57.51296 128.45824-128.45824S582.944 288.46976 512 288.46976z m0 192.68736c-35.47264 0-64.22912-28.75648-64.22912-64.22912s28.75648-64.22912 64.22912-64.22912 64.22912 28.75648 64.22912 64.22912-28.75648 64.22912-64.22912 64.22912z" fill="#39548b" p-id="2451"></path><path d="M829.22368 308.92416L532.12928 136.2688a40.14336 40.14336 0 0 0-40.34944 0.00512L194.848 308.92928a40.14208 40.14208 0 0 0-19.96416 34.6944l-0.08064 338.91456a40.14208 40.14208 0 0 0 20.16 34.82496l297.00736 170.4768a40.14592 40.14592 0 0 0 39.96672 0l297.01888-170.48192a40.14336 40.14336 0 0 0 20.16-34.80576l0.08064-338.90816a40.14464 40.14464 0 0 0-19.97312-34.72zM521.95456 820.84352a20.0704 20.0704 0 0 1-19.98336 0L348.416 732.70656c34.0288-54.53568 94.5664-90.82368 163.584-90.82368 69.00352 0 129.53216 36.27392 163.56608 90.7904l-153.61152 88.17024z m262.33728-162.19264a20.07296 20.07296 0 0 1-10.08 17.40288l-42.92096 24.63616c-45.14048-73.78816-126.4576-123.03616-219.29088-123.03616-92.84736 0-174.17216 49.26208-219.3088 123.06816l-42.97216-24.6656a20.0704 20.0704 0 0 1-10.08-17.41312l0.06912-288.00512a20.07296 20.07296 0 0 1 9.98272-17.34656l252.1856-146.6368a20.06912 20.06912 0 0 1 20.17408-0.00256l252.32384 146.6368a20.0704 20.0704 0 0 1 9.98656 17.35936l-0.06912 288.00256z" fill="#39548b" p-id="2452"></path></svg>