<?xml version="1.0" standalone="no"?><!DOCTYPE svg PUBLIC "-//W3C//DTD SVG 1.1//EN" "http://www.w3.org/Graphics/SVG/1.1/DTD/svg11.dtd"><svg t="1518158702727" class="icon" style="" viewBox="0 0 1024 1024" version="1.1" xmlns="http://www.w3.org/2000/svg" p-id="3172" xmlns:xlink="http://www.w3.org/1999/xlink" width="128" height="128"><defs><style type="text/css"></style></defs><path d="M509.10592 817.89696c-6.83776-7.69152-13.05728-15.9872-18.9888-24.3904-4.66688-6.61248-8.9024-13.50656-13.03296-20.46336a131.17056 131.17056 0 0 1-20.15616 24.4672c-0.08832 0.08448-0.1792 0.16512-0.26752 0.24832-0.67328 0.63872-1.35168 1.27232-2.03648 1.8944-0.3328 0.30336-0.672 0.59648-1.00864 0.896-0.45184 0.40192-0.90112 0.80768-1.3568 1.20192-0.36224 0.3136-0.73088 0.61824-1.09568 0.928-0.43648 0.36992-0.87168 0.74368-1.312 1.1072-0.3776 0.31104-0.76032 0.61312-1.14048 0.92032-0.4352 0.35072-0.86784 0.70528-1.30688 1.0496-0.3904 0.3072-0.78592 0.60544-1.18016 0.90752-0.4352 0.33408-0.86784 0.66944-1.30688 0.99712-0.40064 0.29952-0.8064 0.59136-1.21088 0.88704-0.43776 0.32-0.87424 0.64128-1.31456 0.95488-0.4096 0.29184-0.82432 0.57472-1.23776 0.86144-0.44032 0.30592-0.88064 0.61312-1.32352 0.91264-0.41728 0.2816-0.8384 0.5568-1.25824 0.83328-0.44672 0.2944-0.89344 0.59008-1.34272 0.87808-0.42496 0.27136-0.85248 0.53632-1.27872 0.80384-0.44928 0.28032-0.89856 0.56192-1.35168 0.83712-0.43264 0.2624-0.86912 0.51968-1.30432 0.77696a102.51904 102.51904 0 0 1-2.68544 1.54368c-0.45952 0.25728-0.91904 0.51328-1.38112 0.76416-0.44288 0.24064-0.88832 0.47616-1.33376 0.71168-0.46592 0.24576-0.93312 0.49152-1.40288 0.73216-0.44672 0.22912-0.89472 0.45184-1.34272 0.67584a112.4544 112.4544 0 0 1-2.78144 1.34144 121.07904 121.07904 0 0 1-5.64352 2.47424 121.76768 121.76768 0 0 1-4.34944 1.6896 131.38176 131.38176 0 0 1-2.9056 1.02656c-0.47232 0.16-0.94464 0.32-1.41952 0.47488-0.50304 0.16384-1.00736 0.32384-1.51296 0.48256-0.47488 0.14848-0.94976 0.29696-1.42592 0.43904-0.50944 0.1536-1.02016 0.3008-1.53344 0.44672a107.49568 107.49568 0 0 1-2.98112 0.81408c-0.47744 0.12416-0.95488 0.2496-1.43488 0.36736-0.52224 0.12928-1.04832 0.25216-1.57312 0.37632-0.47744 0.11264-0.95616 0.22528-1.43488 0.33152-0.52608 0.11648-1.05472 0.22656-1.58336 0.33664-0.48128 0.10112-0.96256 0.20352-1.4464 0.29824-0.53504 0.10496-1.07136 0.20224-1.6064 0.3008-0.47872 0.08704-0.95616 0.17792-1.43488 0.25984-0.54784 0.09344-1.09696 0.1792-1.64608 0.26624-0.47232 0.07424-0.94464 0.15232-1.41824 0.22144-0.55552 0.08192-1.11232 0.1536-1.6704 0.22784-0.47104 0.06272-0.94208 0.12928-1.4144 0.18688-0.56448 0.06912-1.13152 0.128-1.69856 0.18944-0.46592 0.04992-0.93184 0.10496-1.40032 0.15104-0.58624 0.0576-1.17504 0.10368-1.76256 0.15232-0.44928 0.03712-0.89728 0.07936-1.34656 0.11264-0.62336 0.0448-1.24928 0.07936-1.8752 0.1152-0.41728 0.02432-0.83328 0.05504-1.25184 0.07424-0.6976 0.03328-1.39648 0.05504-2.09536 0.0768-0.34816 0.01152-0.69504 0.02944-1.04448 0.03712-1.0432 0.0256-2.08896 0.0384-3.13728 0.0384h-0.01536c-34.20672 0-66.50752-13.46304-90.95296-37.90848a132.10368 132.10368 0 0 1-16.23552-19.71328 129.37216 129.37216 0 0 1-2.36288-3.66848 128.064 128.064 0 0 1-6.26816-11.2832 126.4064 126.4064 0 0 1-3.25376-7.15136 126.6944 126.6944 0 0 1-7.30112-23.93216 127.39072 127.39072 0 0 1-2.13248-15.64032 129.72928 129.72928 0 0 1-0.35328-9.56544V319.71584c0-17.71136 3.61728-34.90816 10.49216-50.7712a127.7504 127.7504 0 0 1 2.52416-5.4656 127.91936 127.91936 0 0 1 2.15552-4.21376 129.08288 129.08288 0 0 1 10.16192-15.9616 130.5216 130.5216 0 0 1 8.1216-9.86624 134.12608 134.12608 0 0 1 9.12768-9.12896c23.81696-21.62176 54.21056-33.45408 86.27968-33.45408h0.01664c1.04704 0 2.09152 0.0128 3.13472 0.0384 0.34944 0.00896 0.6976 0.0256 1.04576 0.03712 0.69888 0.02304 1.39776 0.04352 2.09408 0.0768 0.41856 0.02048 0.83584 0.04992 1.25312 0.07424 0.62464 0.03584 1.24928 0.0704 1.87264 0.1152 0.45056 0.03328 0.89984 0.07552 1.34912 0.11264 0.58752 0.04864 1.17504 0.09472 1.76128 0.15232 0.46848 0.04608 0.9344 0.10112 1.4016 0.15104 0.56576 0.06144 1.13152 0.12032 1.696 0.18944 0.47232 0.0576 0.94464 0.12416 1.41568 0.18688 0.5568 0.07424 1.11232 0.14592 1.66784 0.22784 0.47488 0.06912 0.9472 0.1472 1.41952 0.22272 0.54912 0.08704 1.09824 0.17152 1.6448 0.26624 0.47872 0.08192 0.95616 0.1728 1.43488 0.25984 0.53632 0.09856 1.07264 0.19584 1.6064 0.3008 0.48256 0.09472 0.96512 0.19712 1.4464 0.29824 0.52736 0.11008 1.056 0.22016 1.58208 0.33664 0.48 0.10624 0.95872 0.22016 1.43744 0.33152 0.52352 0.12288 1.04832 0.24576 1.57056 0.37504 0.48 0.11904 0.95744 0.2432 1.43616 0.36864 0.51712 0.1344 1.03424 0.27008 1.5488 0.41088 0.47872 0.13056 0.95488 0.26752 1.43104 0.4032 0.512 0.1472 1.02272 0.2944 1.53344 0.44672a140.8 140.8 0 0 1 4.35712 1.39648c0.50048 0.17024 0.99968 0.34304 1.49888 0.5184a130.9504 130.9504 0 0 1 8.59008 3.39968 120.71168 120.71168 0 0 1 5.58976 2.61376c0.44928 0.224 0.89856 0.448 1.34528 0.67712 0.46848 0.24064 0.93568 0.48512 1.4016 0.73216 0.44544 0.23552 0.89088 0.46976 1.33248 0.7104 0.46464 0.25216 0.92544 0.50944 1.38624 0.768 0.43904 0.24576 0.87808 0.49024 1.31456 0.74112 0.45824 0.26368 0.91392 0.53248 1.36832 0.80128 0.4352 0.25728 0.8704 0.51328 1.30304 0.77568 0.45184 0.27392 0.90112 0.55552 1.34912 0.83584 0.4288 0.26752 0.8576 0.53248 1.28256 0.80512 0.448 0.288 0.89344 0.5824 1.33888 0.87552 0.42112 0.27776 0.84352 0.55296 1.2608 0.83456 0.44416 0.29952 0.8832 0.60672 1.32352 0.91264 0.41216 0.28672 0.82688 0.5696 1.23776 0.86144 0.4416 0.3136 0.8768 0.63488 1.31456 0.95488 0.40448 0.2944 0.81024 0.58624 1.21088 0.88704 0.43904 0.32768 0.87168 0.66432 1.30688 0.99712 0.39296 0.30208 0.78976 0.60032 1.18016 0.90752 0.43904 0.34432 0.87168 0.69888 1.30688 1.0496 0.38016 0.3072 0.76288 0.60928 1.14048 0.92032 0.44032 0.36352 0.87552 0.73728 1.312 1.1072 0.36608 0.30976 0.73344 0.6144 1.09568 0.928 0.45568 0.39552 0.90496 0.8 1.3568 1.20192 0.33664 0.29952 0.67584 0.59264 1.00864 0.896 0.6848 0.62208 1.3632 1.25568 2.03648 1.8944 0.08832 0.08448 0.1792 0.16512 0.26752 0.24832 0.78464 0.74752 1.5616 1.50528 2.3296 2.27328 24.44544 24.44544 37.90848 56.74624 37.90848 90.95296v253.8368c9.17632-6.94016 18.45888-13.74336 27.6096-20.66432 11.48544-9.11488 22.57792-18.69184 32.68608-29.34528a49.728 49.728 0 0 1 3.93344-3.70048v-200.128c0-61.01504-28.68736-115.64928-73.2352-151.10016l-0.1792-0.14464c-0.98304-0.7808-1.97632-1.54752-2.97344-2.30912l-0.57344-0.44032a186.66624 186.66624 0 0 0-2.80448-2.07744c-0.27008-0.19712-0.5376-0.39552-0.80768-0.59008-0.896-0.6464-1.7984-1.28128-2.70592-1.91232-0.32384-0.22528-0.64512-0.45056-0.97024-0.67328-0.8768-0.60288-1.76128-1.1968-2.64832-1.78432a193.75872 193.75872 0 0 0-8.7232-5.45792c-0.86656-0.51072-1.73696-1.0176-2.61248-1.51424-0.42496-0.24192-0.85376-0.48-1.28128-0.71808a180.9024 180.9024 0 0 0-2.63424-1.44896c-0.4352-0.23424-0.87168-0.46208-1.30816-0.69248-0.88576-0.46848-1.7728-0.9344-2.66752-1.3888-0.43392-0.22016-0.87168-0.43392-1.30688-0.65152-0.90752-0.45312-1.81376-0.90496-2.72896-1.344-0.41344-0.1984-0.83072-0.38912-1.24544-0.58368-0.94592-0.44544-1.89184-0.89088-2.84672-1.32096-0.34048-0.1536-0.68608-0.29952-1.02784-0.45184a191.78752 191.78752 0 0 0-10.81728-4.41856c-0.17408-0.06528-0.34688-0.1344-0.52096-0.1984-0.88192-0.32512-1.77024-0.63488-2.65728-0.94848-0.5568-0.19712-1.11104-0.39936-1.6704-0.59136-0.80512-0.2752-1.61664-0.5376-2.4256-0.80256-0.64896-0.21248-1.29536-0.43008-1.94816-0.63616-0.77568-0.24576-1.55648-0.47744-2.33728-0.71296-0.69248-0.20864-1.38368-0.42112-2.07872-0.62208-0.76288-0.22016-1.52832-0.43136-2.29504-0.64256-0.72192-0.19968-1.44256-0.39936-2.16832-0.59008-0.75264-0.1984-1.50912-0.38784-2.2656-0.57728-0.74496-0.18688-1.4912-0.37248-2.24-0.5504-0.74752-0.17792-1.4976-0.34816-2.24768-0.51712a171.30752 171.30752 0 0 0-4.52992-0.96128 184.14464 184.14464 0 0 0-7.00416-1.2608c-0.72832-0.11648-1.45536-0.23296-2.18496-0.34176-0.82944-0.12416-1.66016-0.23808-2.49344-0.352-0.71936-0.09728-1.43872-0.19584-2.16192-0.28544-0.85376-0.10624-1.71008-0.20096-2.56768-0.29568-0.70528-0.07808-1.41056-0.15872-2.1184-0.22912-0.8896-0.08832-1.78432-0.16384-2.67648-0.23936-0.68096-0.0576-1.36192-0.12032-2.04544-0.17152-0.94336-0.0704-1.89056-0.12544-2.83776-0.18176-0.64-0.0384-1.27616-0.0832-1.91744-0.1152-1.05856-0.05248-2.12096-0.08704-3.18336-0.1216-0.53376-0.01792-1.06624-0.0448-1.60128-0.0576-1.6-0.03968-3.20512-0.06144-4.81408-0.06144h-0.00128c-106.19904 0-193.09056 86.89024-193.09056 193.09056v384.56832c0 106.19904 86.89152 193.09056 193.09056 193.09056 1.60896 0 3.21408-0.02176 4.81408-0.06144 0.53504-0.0128 1.06624-0.03968 1.6-0.0576 1.0624-0.03456 2.12608-0.06912 3.18336-0.1216 0.64-0.032 1.27744-0.0768 1.91616-0.1152 0.9472-0.05632 1.89568-0.11136 2.84032-0.18176 0.68352-0.0512 1.3632-0.11392 2.04288-0.17152 0.89344-0.07552 1.78816-0.15104 2.67776-0.23936 0.70784-0.0704 1.41312-0.15104 2.1184-0.22912 0.8576-0.09472 1.7152-0.18944 2.56896-0.29568 0.72192-0.0896 1.44128-0.18816 2.16192-0.28544 0.832-0.11264 1.664-0.22784 2.49344-0.352 0.7296-0.1088 1.45664-0.224 2.18368-0.34176a188.81664 188.81664 0 0 0 9.23136-1.71776 211.9744 211.9744 0 0 0 4.5504-1.02144 178.9312 178.9312 0 0 0 2.24128-0.5504c0.7552-0.18944 1.51168-0.37888 2.26304-0.57728 0.72576-0.19072 1.44896-0.39168 2.17216-0.59136 0.76544-0.2112 1.53088-0.42112 2.2912-0.64128 0.69632-0.20224 1.3888-0.41344 2.08256-0.62336 0.77824-0.23552 1.55904-0.4672 2.33344-0.71168 0.6528-0.20608 1.30048-0.42368 1.95072-0.63616 0.80896-0.26496 1.6192-0.52608 2.42304-0.80128 0.56064-0.192 1.11616-0.39552 1.67424-0.59264 0.88576-0.31232 1.7728-0.6208 2.65344-0.94592 0.18176-0.06784 0.36224-0.13952 0.54528-0.20864a191.93472 191.93472 0 0 0 10.79424-4.4096c0.34176-0.15104 0.68608-0.29696 1.02656-0.45056 0.9536-0.43008 1.89952-0.87552 2.84544-1.32096 0.41472-0.19584 0.83328-0.38656 1.24672-0.58496 0.91392-0.43776 1.82016-0.8896 2.7264-1.34272 0.43648-0.2176 0.8768-0.43264 1.31072-0.65408 0.89216-0.4544 1.77792-0.91904 2.6624-1.38624 0.43776-0.23168 0.87808-0.4608 1.31328-0.69504a201.6 201.6 0 0 0 2.63168-1.44768c0.42752-0.23936 0.85632-0.47744 1.28256-0.71936a240.73216 240.73216 0 0 0 3.84896-2.24768 209.36576 209.36576 0 0 0 3.77856-2.3232 186.816 186.816 0 0 0 2.62656-1.68576l1.08032-0.71296c0.88832-0.59008 1.77408-1.184 2.65344-1.78816 0.32256-0.22144 0.64256-0.44672 0.96384-0.66944 0.9088-0.63232 1.81376-1.26976 2.71104-1.91616 0.2688-0.19328 0.53504-0.39168 0.80256-0.58624 0.9408-0.68608 1.87904-1.37728 2.80704-2.08 0.192-0.14464 0.38144-0.29312 0.57216-0.43904 0.99968-0.7616 1.99296-1.5296 2.976-2.3104l0.17024-0.13696a195.30496 195.30496 0 0 0 29.54496-29.16352c-2.99904-2.58176-5.88672-5.30304-8.58368-8.33664z" fill="#39548b" p-id="3173"></path><path d="M211.15136 479.92576h322.28352v64.1472H211.15136z" fill="#39548b" p-id="3174"></path><path d="M625.37856 895.36128l1.68576 0.11776c113.6576 7.94624 213.152-78.54592 221.09824-192.2048l0.11776-1.68576c7.94624-113.65888-78.54592-213.15328-192.2048-221.09824l-1.68576-0.11776c-113.6576-7.94624-213.152 78.54592-221.09824 192.2048l-0.11776 1.68576c-7.94624 113.65888 78.54592 213.15328 192.2048 221.09824zM784.0896 698.79552c-2.64704 37.856-20.0384 72.5568-48.9728 97.71008-28.9344 25.15328-65.71776 37.54752-103.57376 34.90176l-1.68576-0.11776c-27.00544-1.888-52.4032-11.28576-73.87648-27.01952l211.74912-184.0768c12.59264 23.45344 18.36544 49.91104 16.47744 76.91776l-0.11776 1.68448z m-286.72512-21.73824c2.64704-37.856 20.0384-72.5568 48.9728-97.71008 28.9344-25.15328 65.71776-37.54752 103.57376-34.90176l1.68576 0.11776c27.00544 1.888 52.4032 11.28576 73.87648 27.01952L513.72416 755.6608c-12.59264-23.45344-18.36544-49.91104-16.47744-76.91776l0.11776-1.68576z" fill="#39548b" p-id="3175"></path></svg>